/vscmnt/brussel_pixiu_data/_data_brussel/112/vsc11236/PredSimResults/SUBJ11mtu3D/worker8.mot
version=1
nRows=4
nColumns=50
inDegrees=yes
endheader
                time	         pelvis_tilt	         pelvis_list	     pelvis_rotation	           pelvis_tx	           pelvis_ty	           pelvis_tz	       hip_flexion_r	     hip_adduction_r	      hip_rotation_r	        knee_angle_r	       ankle_angle_r	         mtp_angle_r	       hip_flexion_l	     hip_adduction_l	      hip_rotation_l	        knee_angle_l	       ankle_angle_l	         mtp_angle_l	    lumbar_extension	      lumbar_bending	     lumbar_rotation	 ercspn_r/activation	 intobl_r/activation	 extobl_r/activation	    abd_r/activation	    add_r/activation	hamstrings_r/activation	bifemsh_r/activation	glut_max_r/activation	iliopsoas_r/activation	rect_fem_r/activation	  vasti_r/activation	gastroc_r/activation	 soleus_r/activation	tib_ant_r/activation	 ercspn_l/activation	 intobl_l/activation	 extobl_l/activation	    abd_l/activation	    add_l/activation	hamstrings_l/activation	bifemsh_l/activation	glut_max_l/activation	iliopsoas_l/activation	rect_fem_l/activation	  vasti_l/activation	gastroc_l/activation	 soleus_l/activation	tib_ant_l/activation	
          0.00000000	         -3.56003533	         -0.63186502	          4.52253054	          0.00000000	          0.94265791	         -0.00663990	         31.27509415	         -2.29091516	         -3.98811786	        -10.18915035	          2.31486903	          0.25842092	        -13.22204500	         -2.45548590	         -2.60517171	        -11.36320416	         12.16818210	         28.41246006	        -14.29051761	         -1.59715087	         -4.12905886	          0.03309447	          0.20213350	          0.05220913	          0.01000000	          0.19464729	          0.03401516	          0.12068502	          0.08270782	          0.07929878	          0.03575754	          0.01490777	          0.01000001	          0.01000000	          0.39985649	          0.02065474	          0.01000002	          0.01000001	          0.03947421	          0.01480398	          0.01150497	          0.17743600	          0.01839549	          0.02108125	          0.01216718	          0.01000004	          0.13383629	          0.30200465	          0.01334157	
          0.01300272	         -3.64421049	         -0.68913942	          4.65788056	          0.01803768	          0.94073452	         -0.00550515	         30.96503865	         -2.15100249	         -4.02453234	        -11.35787170	          1.85579856	          0.21191385	        -13.86976452	         -2.70448281	         -2.85584264	        -11.95341479	         11.37838360	         30.12660635	        -13.85449614	         -1.12900307	         -4.36968964	          0.02719995	          0.16613095	          0.04291002	          0.04272442	          0.17568165	          0.04921327	          0.09918952	          0.10537424	          0.06517465	          0.02938869	          0.01225251	          0.01216721	          0.01216712	          0.43973103	          0.02438554	          0.01000001	          0.01000010	          0.03244335	          0.01216729	          0.02046367	          0.14583240	          0.01587131	          0.01732647	          0.01000011	          0.01000008	          0.10999835	          0.28189314	          0.01096527	
          0.02600543	         -3.71137547	         -0.74476707	          4.77247841	          0.03632087	          0.93916647	         -0.00429615	         30.63431177	         -2.02923845	         -4.09728073	        -12.55299864	          1.30827716	          0.20515401	        -14.37003330	         -2.96433677	         -3.11829149	        -12.83276336	         10.44060022	         31.90401009	        -13.40012136	         -0.66186914	         -4.59696267	          0.03284368	          0.13654091	          0.03526720	          0.09221411	          0.22101925	          0.04044782	          0.08152263	          0.12444834	          0.05356622	          0.02415421	          0.01007022	          0.01000008	          0.01000001	          0.49890910	          0.03559607	          0.01000000	          0.01000002	          0.02666478	          0.01000021	          0.01681887	          0.11985781	          0.01304445	          0.01424048	          0.01000057	          0.01000160	          0.09040624	          0.25726429	          0.01000000	
          0.03900815	         -3.76124430	         -0.78705232	          4.86226854	          0.05459689	          0.93811586	         -0.00301589	         30.40154692	         -1.93038386	         -4.22488859	        -13.91001853	          0.65824094	          0.16722770	        -14.62556329	         -3.22471955	         -3.38960712	        -14.13780573	          9.33958101	         33.74014201	        -12.95879597	         -0.21024132	         -4.80603322	          0.03552473	          0.11222123	          0.02898566	          0.11795932	          0.27395543	          0.04008461	          0.06700244	          0.11903415	          0.04402539	          0.01985207	          0.06015021	          0.01000002	          0.01000000	          0.54758455	          0.06305378	          0.01000001	          0.01000002	          0.02191544	          0.06060170	          0.02104517	          0.09850962	          0.01216708	          0.01170416	          0.01000014	          0.01216715	          0.07430373	          0.22942204	          0.01000000	
